<svg width="20" height="10" viewBox="0 0 20 10" fill="none" xmlns="http://www.w3.org/2000/svg">
<path d="M15 0C12.906 0 11.389 1.567 9.99901 3.346C8.60901 1.567 7.09301 0 5.00001 0C2.24301 0 1.4949e-05 2.243 1.4949e-05 5C-0.00159265 5.65613 0.126475 6.30611 0.376858 6.91259C0.627242 7.51907 0.995005 8.0701 1.45902 8.534C1.92119 8.99999 2.47131 9.36954 3.07746 9.6212C3.68361 9.87286 4.3337 10.0016 4.99001 10H5.00201C7.09101 9.995 8.60702 8.428 9.99802 6.649C11.389 8.431 12.906 10 15 10C17.757 10 20 7.757 20 5C20 2.243 17.757 0 15 0ZM4.99801 8L4.99001 9V8C4.19101 8 3.44001 7.688 2.87601 7.122C2.45801 6.70157 2.17376 6.16686 2.05905 5.5852C1.94434 5.00354 2.00432 4.40095 2.23141 3.8533C2.45851 3.30566 2.84258 2.83746 3.33525 2.50767C3.82792 2.17788 4.40715 2.00124 5.00001 2C6.33001 2 7.56002 3.438 8.74602 4.998C7.55802 6.557 6.32801 7.997 4.99801 8ZM15 8C13.67 8 12.439 6.56 11.251 4.998C12.438 3.438 13.668 2 15 2C16.654 2 18 3.346 18 5C18 6.654 16.654 8 15 8Z" fill="#3B82F6"/>
</svg>
