<svg width="439" height="115" viewBox="0 0 439 115" fill="none" xmlns="http://www.w3.org/2000/svg">
<path d="M159.608 73.376H176.528V80H151.4V29.96H159.608V73.376ZM177.056 59.984C177.056 56 177.872 52.472 179.504 49.4C181.184 46.328 183.44 43.952 186.272 42.272C189.152 40.544 192.32 39.68 195.776 39.68C198.896 39.68 201.608 40.304 203.912 41.552C206.264 42.752 208.136 44.264 209.528 46.088V40.328H217.808V80H209.528V74.096C208.136 75.968 206.24 77.528 203.84 78.776C201.44 80.024 198.704 80.648 195.632 80.648C192.224 80.648 189.104 79.784 186.272 78.056C183.44 76.28 181.184 73.832 179.504 70.712C177.872 67.544 177.056 63.968 177.056 59.984ZM209.528 60.128C209.528 57.392 208.952 55.016 207.8 53C206.696 50.984 205.232 49.448 203.408 48.392C201.584 47.336 199.616 46.808 197.504 46.808C195.392 46.808 193.424 47.336 191.6 48.392C189.776 49.4 188.288 50.912 187.136 52.928C186.032 54.896 185.48 57.248 185.48 59.984C185.48 62.72 186.032 65.12 187.136 67.184C188.288 69.248 189.776 70.832 191.6 71.936C193.472 72.992 195.44 73.52 197.504 73.52C199.616 73.52 201.584 72.992 203.408 71.936C205.232 70.88 206.696 69.344 207.8 67.328C208.952 65.264 209.528 62.864 209.528 60.128ZM233.197 46.16C234.589 44.336 236.485 42.8 238.885 41.552C241.285 40.304 243.997 39.68 247.021 39.68C250.477 39.68 253.621 40.544 256.453 42.272C259.333 43.952 261.589 46.328 263.221 49.4C264.853 52.472 265.669 56 265.669 59.984C265.669 63.968 264.853 67.544 263.221 70.712C261.589 73.832 259.333 76.28 256.453 78.056C253.621 79.784 250.477 80.648 247.021 80.648C243.997 80.648 241.309 80.048 238.957 78.848C236.605 77.6 234.685 76.064 233.197 74.24V98.864H224.989V40.328H233.197V46.16ZM257.317 59.984C257.317 57.248 256.741 54.896 255.589 52.928C254.485 50.912 252.997 49.4 251.125 48.392C249.301 47.336 247.333 46.808 245.221 46.808C243.157 46.808 241.189 47.336 239.317 48.392C237.493 49.448 236.005 50.984 234.853 53C233.749 55.016 233.197 57.392 233.197 60.128C233.197 62.864 233.749 65.264 234.853 67.328C236.005 69.344 237.493 70.88 239.317 71.936C241.189 72.992 243.157 73.52 245.221 73.52C247.333 73.52 249.301 72.992 251.125 71.936C252.997 70.832 254.485 69.248 255.589 67.184C256.741 65.12 257.317 62.72 257.317 59.984ZM286.674 80.504C283.314 80.504 280.29 79.928 277.602 78.776C274.914 77.576 272.802 75.896 271.266 73.736C269.73 71.576 268.962 69.056 268.962 66.176H277.746C277.938 68.336 278.778 70.112 280.266 71.504C281.802 72.896 283.938 73.592 286.674 73.592C289.506 73.592 291.714 72.92 293.298 71.576C294.882 70.184 295.674 68.408 295.674 66.248C295.674 64.568 295.17 63.2 294.162 62.144C293.202 61.088 291.978 60.272 290.49 59.696C289.05 59.12 287.034 58.496 284.442 57.824C281.178 56.96 278.514 56.096 276.45 55.232C274.434 54.32 272.706 52.928 271.266 51.056C269.826 49.184 269.106 46.688 269.106 43.568C269.106 40.688 269.826 38.168 271.266 36.008C272.706 33.848 274.722 32.192 277.314 31.04C279.906 29.888 282.906 29.312 286.314 29.312C291.162 29.312 295.122 30.536 298.194 32.984C301.314 35.384 303.042 38.696 303.378 42.92H294.306C294.162 41.096 293.298 39.536 291.714 38.24C290.13 36.944 288.042 36.296 285.45 36.296C283.098 36.296 281.178 36.896 279.69 38.096C278.202 39.296 277.458 41.024 277.458 43.28C277.458 44.816 277.914 46.088 278.826 47.096C279.786 48.056 280.986 48.824 282.426 49.4C283.866 49.976 285.834 50.6 288.33 51.272C291.642 52.184 294.33 53.096 296.394 54.008C298.506 54.92 300.282 56.336 301.722 58.256C303.21 60.128 303.954 62.648 303.954 65.816C303.954 68.36 303.258 70.76 301.866 73.016C300.522 75.272 298.53 77.096 295.89 78.488C293.298 79.832 290.226 80.504 286.674 80.504ZM319.615 47.024V68.984C319.615 70.472 319.951 71.552 320.623 72.224C321.343 72.848 322.543 73.16 324.223 73.16H329.263V80H322.783C319.087 80 316.255 79.136 314.287 77.408C312.319 75.68 311.335 72.872 311.335 68.984V47.024H306.655V40.328H311.335V30.464H319.615V40.328H329.263V47.024H319.615ZM350.436 80.648C346.692 80.648 343.308 79.808 340.284 78.128C337.26 76.4 334.884 74 333.156 70.928C331.428 67.808 330.564 64.208 330.564 60.128C330.564 56.096 331.452 52.52 333.228 49.4C335.004 46.28 337.428 43.88 340.5 42.2C343.572 40.52 347.004 39.68 350.796 39.68C354.588 39.68 358.02 40.52 361.092 42.2C364.164 43.88 366.588 46.28 368.364 49.4C370.14 52.52 371.028 56.096 371.028 60.128C371.028 64.16 370.116 67.736 368.292 70.856C366.468 73.976 363.972 76.4 360.804 78.128C357.684 79.808 354.228 80.648 350.436 80.648ZM350.436 73.52C352.548 73.52 354.516 73.016 356.34 72.008C358.212 71 359.724 69.488 360.876 67.472C362.028 65.456 362.604 63.008 362.604 60.128C362.604 57.248 362.052 54.824 360.948 52.856C359.844 50.84 358.38 49.328 356.556 48.32C354.732 47.312 352.764 46.808 350.652 46.808C348.54 46.808 346.572 47.312 344.748 48.32C342.972 49.328 341.556 50.84 340.5 52.856C339.444 54.824 338.916 57.248 338.916 60.128C338.916 64.4 339.996 67.712 342.156 70.064C344.364 72.368 347.124 73.52 350.436 73.52ZM383.75 46.088C384.95 44.072 386.534 42.512 388.502 41.408C390.518 40.256 392.894 39.68 395.63 39.68V48.176H393.542C390.326 48.176 387.878 48.992 386.198 50.624C384.566 52.256 383.75 55.088 383.75 59.12V80H375.542V40.328H383.75V46.088ZM435.935 59.192C435.935 60.68 435.839 62.024 435.647 63.224H405.335C405.575 66.392 406.751 68.936 408.863 70.856C410.975 72.776 413.567 73.736 416.639 73.736C421.055 73.736 424.175 71.888 425.999 68.192H434.855C433.655 71.84 431.471 74.84 428.303 77.192C425.183 79.496 421.295 80.648 416.639 80.648C412.847 80.648 409.439 79.808 406.415 78.128C403.439 76.4 401.087 74 399.359 70.928C397.679 67.808 396.839 64.208 396.839 60.128C396.839 56.048 397.655 52.472 399.287 49.4C400.967 46.28 403.295 43.88 406.271 42.2C409.295 40.52 412.751 39.68 416.639 39.68C420.383 39.68 423.719 40.496 426.647 42.128C429.575 43.76 431.855 46.064 433.487 49.04C435.119 51.968 435.935 55.352 435.935 59.192ZM427.367 56.6C427.319 53.576 426.239 51.152 424.127 49.328C422.015 47.504 419.399 46.592 416.279 46.592C413.447 46.592 411.023 47.504 409.007 49.328C406.991 51.104 405.791 53.528 405.407 56.6H427.367Z" fill="#111827"/>
<ellipse cx="58" cy="57.5" rx="58" ry="57.5" fill="#3B82F6"/>
<path d="M79.8333 74.25C82.9042 74.25 85.4167 71.7375 85.4167 68.6666V40.75C85.4167 37.6791 82.9042 35.1666 79.8333 35.1666H35.1667C32.0958 35.1666 29.5833 37.6791 29.5833 40.75V68.6666C29.5833 71.7375 32.0958 74.25 35.1667 74.25H26.7917C25.2563 74.25 24 75.5062 24 77.0416C24 78.577 25.2563 79.8333 26.7917 79.8333H88.2083C89.7438 79.8333 91 78.577 91 77.0416C91 75.5062 89.7438 74.25 88.2083 74.25H79.8333ZM37.9583 40.75H77.0417C78.5771 40.75 79.8333 42.0062 79.8333 43.5416V65.875C79.8333 67.4104 78.5771 68.6666 77.0417 68.6666H37.9583C36.4229 68.6666 35.1667 67.4104 35.1667 65.875V43.5416C35.1667 42.0062 36.4229 40.75 37.9583 40.75Z" fill="white"/>
</svg>
