<svg width="12" height="14" viewBox="0 0 12 14" fill="none" xmlns="http://www.w3.org/2000/svg">
<path d="M6 0L0 2V8C0 11.3141 2.68594 14 6 14C9.31406 14 12 11.3141 12 8V2L6 0ZM10.875 8C10.875 10.6922 8.69219 12.875 6 12.875C3.30781 12.875 1.125 10.6922 1.125 8V2.84375L6 1.125L10.875 2.84375V8Z" fill="#3B82F6"/>
<path d="M3.91249 6.42344C3.86036 6.37106 3.79839 6.32951 3.73015 6.30115C3.66191 6.27279 3.58874 6.25819 3.51484 6.25819C3.44094 6.25819 3.36777 6.27279 3.29952 6.30115C3.23128 6.32951 3.16932 6.37106 3.11718 6.42344C3.06481 6.47557 3.02325 6.53754 2.99489 6.60578C2.96653 6.67402 2.95193 6.74719 2.95193 6.82109C2.95193 6.89499 2.96653 6.96816 2.99489 7.03641C3.02325 7.10465 3.06481 7.16662 3.11718 7.21875L5.13906 9.24063L5.17187 9.27344C5.22118 9.32285 5.27976 9.36204 5.34424 9.38879C5.40872 9.41553 5.47784 9.4293 5.54765 9.4293C5.61746 9.4293 5.68658 9.41553 5.75106 9.38879C5.81554 9.36204 5.87412 9.32285 5.92343 9.27344L9.41562 5.78125C9.46503 5.73194 9.50422 5.67336 9.53097 5.60888C9.55771 5.5444 9.57148 5.47528 9.57148 5.40547C9.57148 5.33566 9.55771 5.26654 9.53097 5.20206C9.50422 5.13758 9.46503 5.079 9.41562 5.02969L9.37187 4.98594C9.32255 4.93653 9.26398 4.89733 9.1995 4.87059C9.13502 4.84384 9.06589 4.83008 8.99609 4.83008C8.92628 4.83008 8.85716 4.84384 8.79268 4.87059C8.72819 4.89733 8.66962 4.93653 8.62031 4.98594L5.54687 8.05781L3.91249 6.42344Z" fill="#3B82F6"/>
</svg>
